<mxfile host="app.diagrams.net" modified="2023-01-31T20:02:04.706Z" agent="5.0 (Windows NT 10.0; Win64; x64) AppleWebKit/537.36 (KHTML, like Gecko) Chrome/109.0.0.0 Safari/537.36" etag="kvdf6sfnZhIgvmktzM2r" version="20.8.13" type="github">
  <diagram name="Page-1" id="uhssRLFX8s_NMl_LOtZR">
    <mxGraphModel dx="1434" dy="796" grid="1" gridSize="10" guides="1" tooltips="1" connect="1" arrows="1" fold="1" page="1" pageScale="1" pageWidth="850" pageHeight="1100" math="0" shadow="0">
      <root>
        <mxCell id="0" />
        <mxCell id="1" parent="0" />
        <mxCell id="5m5sfJ3qKURavMQY6dot-1" value="Making Appointment &amp;amp; completing visit" style="swimlane;childLayout=stackLayout;resizeParent=1;resizeParentMax=0;horizontal=1;startSize=20;horizontalStack=0;html=1;" vertex="1" parent="1">
          <mxGeometry x="40" y="60" width="760" height="430" as="geometry" />
        </mxCell>
        <mxCell id="5m5sfJ3qKURavMQY6dot-2" value="Assistant" style="swimlane;startSize=20;horizontal=0;html=1;" vertex="1" parent="5m5sfJ3qKURavMQY6dot-1">
          <mxGeometry y="20" width="760" height="120" as="geometry" />
        </mxCell>
        <mxCell id="5m5sfJ3qKURavMQY6dot-24" value="Print/upload invoice" style="rounded=1;whiteSpace=wrap;html=1;labelBorderColor=none;fontColor=default;" vertex="1" parent="5m5sfJ3qKURavMQY6dot-2">
          <mxGeometry x="410" y="30" width="95" height="40" as="geometry" />
        </mxCell>
        <mxCell id="5m5sfJ3qKURavMQY6dot-29" value="Update availability schedule" style="rounded=1;whiteSpace=wrap;html=1;labelBorderColor=none;fontColor=default;" vertex="1" parent="5m5sfJ3qKURavMQY6dot-2">
          <mxGeometry x="90" y="30" width="80" height="50" as="geometry" />
        </mxCell>
        <mxCell id="5m5sfJ3qKURavMQY6dot-3" value="Dentist" style="swimlane;startSize=20;horizontal=0;html=1;" vertex="1" parent="5m5sfJ3qKURavMQY6dot-1">
          <mxGeometry y="140" width="760" height="170" as="geometry" />
        </mxCell>
        <mxCell id="5m5sfJ3qKURavMQY6dot-35" style="edgeStyle=orthogonalEdgeStyle;rounded=0;orthogonalLoop=1;jettySize=auto;html=1;exitX=1;exitY=0.5;exitDx=0;exitDy=0;entryX=0;entryY=0.5;entryDx=0;entryDy=0;fontColor=default;" edge="1" parent="5m5sfJ3qKURavMQY6dot-3" source="5m5sfJ3qKURavMQY6dot-13" target="5m5sfJ3qKURavMQY6dot-21">
          <mxGeometry relative="1" as="geometry" />
        </mxCell>
        <mxCell id="5m5sfJ3qKURavMQY6dot-13" value="Complete Visit" style="rounded=1;whiteSpace=wrap;html=1;" vertex="1" parent="5m5sfJ3qKURavMQY6dot-3">
          <mxGeometry x="245" y="20" width="90" height="40" as="geometry" />
        </mxCell>
        <mxCell id="5m5sfJ3qKURavMQY6dot-21" value="Upload report" style="rounded=1;whiteSpace=wrap;html=1;labelBorderColor=none;fontColor=default;" vertex="1" parent="5m5sfJ3qKURavMQY6dot-3">
          <mxGeometry x="405" y="25" width="90" height="30" as="geometry" />
        </mxCell>
        <mxCell id="5m5sfJ3qKURavMQY6dot-31" value="Approved" style="rounded=1;whiteSpace=wrap;html=1;labelBorderColor=none;fontColor=default;" vertex="1" parent="5m5sfJ3qKURavMQY6dot-3">
          <mxGeometry x="260" y="130" width="60" height="30" as="geometry" />
        </mxCell>
        <mxCell id="5m5sfJ3qKURavMQY6dot-4" value="Patient" style="swimlane;startSize=20;horizontal=0;html=1;" vertex="1" parent="5m5sfJ3qKURavMQY6dot-1">
          <mxGeometry y="310" width="760" height="120" as="geometry" />
        </mxCell>
        <mxCell id="5m5sfJ3qKURavMQY6dot-8" value="" style="edgeStyle=orthogonalEdgeStyle;rounded=0;orthogonalLoop=1;jettySize=auto;html=1;" edge="1" parent="5m5sfJ3qKURavMQY6dot-4" source="5m5sfJ3qKURavMQY6dot-5" target="5m5sfJ3qKURavMQY6dot-6">
          <mxGeometry relative="1" as="geometry" />
        </mxCell>
        <mxCell id="5m5sfJ3qKURavMQY6dot-5" value="" style="ellipse;shape=doubleEllipse;html=1;dashed=0;whitespace=wrap;aspect=fixed;" vertex="1" parent="5m5sfJ3qKURavMQY6dot-4">
          <mxGeometry x="40" y="35" width="40" height="40" as="geometry" />
        </mxCell>
        <mxCell id="5m5sfJ3qKURavMQY6dot-11" value="" style="edgeStyle=orthogonalEdgeStyle;rounded=0;orthogonalLoop=1;jettySize=auto;html=1;" edge="1" parent="5m5sfJ3qKURavMQY6dot-4" source="5m5sfJ3qKURavMQY6dot-6" target="5m5sfJ3qKURavMQY6dot-10">
          <mxGeometry relative="1" as="geometry" />
        </mxCell>
        <mxCell id="5m5sfJ3qKURavMQY6dot-6" value="Find &amp;amp; Request Appointment" style="rounded=1;whiteSpace=wrap;html=1;" vertex="1" parent="5m5sfJ3qKURavMQY6dot-4">
          <mxGeometry x="110" y="30" width="120" height="60" as="geometry" />
        </mxCell>
        <mxCell id="5m5sfJ3qKURavMQY6dot-10" value="" style="rhombus;whiteSpace=wrap;html=1;" vertex="1" parent="5m5sfJ3qKURavMQY6dot-4">
          <mxGeometry x="270" y="32.5" width="50" height="55" as="geometry" />
        </mxCell>
        <mxCell id="5m5sfJ3qKURavMQY6dot-19" value="" style="endArrow=classic;html=1;rounded=0;fontColor=default;exitX=1;exitY=0.5;exitDx=0;exitDy=0;entryX=0.5;entryY=1;entryDx=0;entryDy=0;" edge="1" parent="5m5sfJ3qKURavMQY6dot-4" source="5m5sfJ3qKURavMQY6dot-10" target="5m5sfJ3qKURavMQY6dot-6">
          <mxGeometry width="50" height="50" relative="1" as="geometry">
            <mxPoint x="340" y="60" as="sourcePoint" />
            <mxPoint x="170" y="100" as="targetPoint" />
            <Array as="points">
              <mxPoint x="320" y="90" />
              <mxPoint x="320" y="110" />
              <mxPoint x="170" y="110" />
            </Array>
          </mxGeometry>
        </mxCell>
        <mxCell id="5m5sfJ3qKURavMQY6dot-20" value="Denied" style="text;html=1;align=center;verticalAlign=middle;resizable=0;points=[];autosize=1;strokeColor=none;fillColor=none;fontColor=default;" vertex="1" parent="5m5sfJ3qKURavMQY6dot-4">
          <mxGeometry x="220" y="87.5" width="60" height="30" as="geometry" />
        </mxCell>
        <mxCell id="5m5sfJ3qKURavMQY6dot-38" style="edgeStyle=orthogonalEdgeStyle;rounded=0;orthogonalLoop=1;jettySize=auto;html=1;entryX=0;entryY=0.5;entryDx=0;entryDy=0;fontColor=default;" edge="1" parent="5m5sfJ3qKURavMQY6dot-4" source="5m5sfJ3qKURavMQY6dot-27" target="5m5sfJ3qKURavMQY6dot-37">
          <mxGeometry relative="1" as="geometry" />
        </mxCell>
        <mxCell id="5m5sfJ3qKURavMQY6dot-27" value="Make payment&lt;br&gt;(Cash/Online)" style="rounded=1;whiteSpace=wrap;html=1;labelBorderColor=none;fontColor=default;" vertex="1" parent="5m5sfJ3qKURavMQY6dot-4">
          <mxGeometry x="490" y="30" width="120" height="50" as="geometry" />
        </mxCell>
        <mxCell id="5m5sfJ3qKURavMQY6dot-37" value="" style="ellipse;html=1;shape=endState;fillColor=#000000;strokeColor=#ff0000;labelBorderColor=none;fontColor=default;" vertex="1" parent="5m5sfJ3qKURavMQY6dot-4">
          <mxGeometry x="680" y="40" width="30" height="30" as="geometry" />
        </mxCell>
        <mxCell id="5m5sfJ3qKURavMQY6dot-39" value="End" style="text;html=1;align=center;verticalAlign=middle;resizable=0;points=[];autosize=1;strokeColor=none;fillColor=none;fontColor=default;" vertex="1" parent="5m5sfJ3qKURavMQY6dot-4">
          <mxGeometry x="675" y="70" width="40" height="30" as="geometry" />
        </mxCell>
        <mxCell id="5m5sfJ3qKURavMQY6dot-40" value="Start" style="text;html=1;align=center;verticalAlign=middle;resizable=0;points=[];autosize=1;strokeColor=none;fillColor=none;fontColor=default;" vertex="1" parent="5m5sfJ3qKURavMQY6dot-4">
          <mxGeometry x="35" y="70" width="50" height="30" as="geometry" />
        </mxCell>
        <mxCell id="5m5sfJ3qKURavMQY6dot-28" style="edgeStyle=orthogonalEdgeStyle;rounded=0;orthogonalLoop=1;jettySize=auto;html=1;exitX=1;exitY=0.5;exitDx=0;exitDy=0;entryX=0.5;entryY=0;entryDx=0;entryDy=0;fontColor=default;" edge="1" parent="5m5sfJ3qKURavMQY6dot-1" source="5m5sfJ3qKURavMQY6dot-24" target="5m5sfJ3qKURavMQY6dot-27">
          <mxGeometry relative="1" as="geometry" />
        </mxCell>
        <mxCell id="5m5sfJ3qKURavMQY6dot-30" style="edgeStyle=orthogonalEdgeStyle;rounded=0;orthogonalLoop=1;jettySize=auto;html=1;exitX=0.5;exitY=0;exitDx=0;exitDy=0;entryX=0.5;entryY=1;entryDx=0;entryDy=0;entryPerimeter=0;fontColor=default;" edge="1" parent="5m5sfJ3qKURavMQY6dot-1" source="5m5sfJ3qKURavMQY6dot-10">
          <mxGeometry relative="1" as="geometry">
            <mxPoint x="295" y="300" as="targetPoint" />
          </mxGeometry>
        </mxCell>
        <mxCell id="5m5sfJ3qKURavMQY6dot-32" style="edgeStyle=orthogonalEdgeStyle;rounded=0;orthogonalLoop=1;jettySize=auto;html=1;entryX=0.5;entryY=1;entryDx=0;entryDy=0;fontColor=default;" edge="1" parent="5m5sfJ3qKURavMQY6dot-1" source="5m5sfJ3qKURavMQY6dot-31" target="5m5sfJ3qKURavMQY6dot-29">
          <mxGeometry relative="1" as="geometry" />
        </mxCell>
        <mxCell id="5m5sfJ3qKURavMQY6dot-34" style="edgeStyle=orthogonalEdgeStyle;rounded=0;orthogonalLoop=1;jettySize=auto;html=1;exitX=1;exitY=0.5;exitDx=0;exitDy=0;entryX=0.5;entryY=0;entryDx=0;entryDy=0;fontColor=default;" edge="1" parent="5m5sfJ3qKURavMQY6dot-1" source="5m5sfJ3qKURavMQY6dot-29" target="5m5sfJ3qKURavMQY6dot-13">
          <mxGeometry relative="1" as="geometry" />
        </mxCell>
        <mxCell id="5m5sfJ3qKURavMQY6dot-36" style="edgeStyle=orthogonalEdgeStyle;rounded=0;orthogonalLoop=1;jettySize=auto;html=1;entryX=0.421;entryY=1.025;entryDx=0;entryDy=0;entryPerimeter=0;fontColor=default;" edge="1" parent="5m5sfJ3qKURavMQY6dot-1" source="5m5sfJ3qKURavMQY6dot-21" target="5m5sfJ3qKURavMQY6dot-24">
          <mxGeometry relative="1" as="geometry" />
        </mxCell>
      </root>
    </mxGraphModel>
  </diagram>
</mxfile>
